<svg width="797" height="582" viewBox="0 0 797 582" fill="none" xmlns="http://www.w3.org/2000/svg">
<path d="M0.585571 287.088H244.332C200.56 266.918 173.096 230.443 173.096 186.243C173.096 132.172 213.863 90.9751 267.933 90.9751C312.134 90.9751 349.898 115.436 373.929 158.778V0H423.708V158.778C447.31 115.436 485.503 90.9751 529.703 90.9751C583.773 90.9751 624.541 132.172 624.541 186.243C624.541 230.443 596.648 266.918 553.305 287.088H796.194V332.575H463.617C480.354 367.335 545.152 431.275 596.219 435.567C616.388 437.283 628.404 450.587 628.404 470.756C628.404 488.779 613.813 505.086 590.64 502.082C533.136 494.787 444.306 426.984 426.283 358.753H423.708V581.9H373.929V358.753H370.925C353.33 426.984 264.501 494.787 206.568 502.082C183.395 505.086 169.234 488.779 169.234 470.756C169.234 450.587 181.25 437.712 201.419 435.567C252.485 430.418 317.284 367.335 334.02 332.575H0.585571V287.088ZM355.905 280.65H366.634V270.352C366.634 205.553 323.292 149.337 271.367 149.337C246.048 149.337 231.028 165.215 231.028 190.533C231.028 233.447 287.245 280.65 355.905 280.65ZM441.731 280.65C510.392 280.65 566.608 233.447 566.608 190.533C566.608 165.215 551.16 149.337 526.27 149.337C473.916 149.337 430.574 205.553 430.574 270.352V280.65H441.731ZM110.014 581.9H686.765C760.146 581.9 796.194 546.283 796.194 474.188V107.711C796.194 35.6175 760.146 0 686.765 0H110.014C37.0616 0 0.585571 35.6175 0.585571 107.711V474.188C0.585571 546.283 37.0616 581.9 110.014 581.9Z" fill="black"/>
</svg>
