<svg width="53" height="53" viewBox="0 0 53 53" fill="none" xmlns="http://www.w3.org/2000/svg">
<path fill-rule="evenodd" clip-rule="evenodd" d="M4.09526 14.9116C2.12056 14.9116 0.693359 13.5298 0.693359 11.5132V4.21881C0.693359 2.25101 2.12056 0.820312 4.09526 0.820312H11.3828C13.4029 0.820312 14.7847 2.25101 14.7847 4.21881V11.5132C14.7847 13.5298 13.4029 14.9116 11.3828 14.9116H4.09526ZM23.0923 14.9116C21.1177 14.9116 19.6905 13.5298 19.6905 11.5132V4.21881C19.6905 2.25101 21.1177 0.820312 23.0923 0.820312H30.3799C32.3999 0.820312 33.7817 2.25101 33.7817 4.21881V11.5132C33.7817 13.5298 32.3999 14.9116 30.3799 14.9116H23.0923ZM42.0405 14.9116C40.0239 14.9116 38.6387 13.5298 38.6387 11.5132V4.21881C38.6387 2.25101 40.0239 0.820312 42.0405 0.820312H49.3315C51.3027 0.820312 52.7334 2.25101 52.7334 4.21881V11.5132C52.7334 13.5298 51.3027 14.9116 49.3315 14.9116H42.0405ZM4.09526 33.9087C2.12056 33.9087 0.693359 32.5234 0.693359 30.5102V23.2124C0.693359 21.2446 2.12056 19.814 4.09526 19.814H11.3828C13.4029 19.814 14.7847 21.2446 14.7847 23.2124V30.5102C14.7847 32.5234 13.4029 33.9087 11.3828 33.9087H4.09526ZM23.0923 33.9087C21.1177 33.9087 19.6905 32.5234 19.6905 30.5102V23.2124C19.6905 21.2446 21.1177 19.814 23.0923 19.814H30.3799C32.3999 19.814 33.7817 21.2446 33.7817 23.2124V30.5102C33.7817 32.5234 32.3999 33.9087 30.3799 33.9087H23.0923ZM42.0405 33.9087C40.0239 33.9087 38.6387 32.5234 38.6387 30.5102V23.2124C38.6387 21.2446 40.0239 19.814 42.0405 19.814H49.3315C51.3027 19.814 52.7334 21.2446 52.7334 23.2124V30.5102C52.7334 32.5234 51.3027 33.9087 49.3315 33.9087H42.0405ZM23.0923 52.8569C21.1177 52.8569 19.6905 51.4297 19.6905 49.4585V42.1641C19.6905 40.1475 21.1177 38.7656 23.0923 38.7656H30.3799C32.3999 38.7656 33.7817 40.1475 33.7817 42.1641V49.4585C33.7817 51.4297 32.3999 52.8569 30.3799 52.8569H23.0923ZM42.0405 52.8569C40.0239 52.8569 38.6387 51.4297 38.6387 49.4585V42.1641C38.6387 40.1475 40.0239 38.7656 42.0405 38.7656H49.3315C51.3027 38.7656 52.7334 40.1475 52.7334 42.1641V49.4585C52.7334 51.4297 51.3027 52.8569 49.3315 52.8569H42.0405Z" fill="black"/>
</svg>
